<svg aria-hidden="true" style="width:0;height:0;position:absolute;overflow:hidden" xmlns="http://www.w3.org/2000/svg"><defs><symbol id="icon-up" viewBox="0 0 32 32"><path fill="#d41443" style="fill:var(--color1,#d41443)" d="M16 0C7.162 0 0 7.162 0 16s7.162 16 16 16 16-7.162 16-16S24.838 0 16 0zm0 30.449C8 30.449 1.551 23.957 1.551 16S8 1.551 16 1.551 30.449 8.043 30.449 16 23.957 30.449 16 30.449zm6.282-16a.782.782 0 0 1 0 1.09c-.167.167-.334.209-.543.209s-.376-.085-.543-.209l-4.444-4.44v12.27c0 .419-.334.752-.752.752s-.752-.334-.752-.752v-12.27l-4.401 4.397c-.295.295-.795.295-1.09 0s-.295-.795 0-1.09l5.697-5.693c.043-.043.085-.085.124-.085l.043-.043c.043 0 .043-.043.085-.043s.043 0 .085-.043h.465c.042 0 .043 0 .085.043.043 0 .043.043.085.043 0 0 .043 0 .043.043.043.043.085.043.124.085l5.689 5.735z"/></symbol><symbol id="icon-close" viewBox="0 0 18 18"><path d="M15 4.108 13.892 3 9.5 7.392 5.108 3 4 4.108 8.392 8.5 4 12.892 5.108 14 9.5 9.608 13.892 14 15 12.892 10.608 8.5 15 4.108Z"/></symbol><symbol id="icon-arrow-x" viewBox="0 0 22 32"><path fill="none" stroke="#d41443" style="stroke:var(--color1,#d41443)" stroke-linejoin="round" stroke-linecap="round" stroke-width="6.4" d="M5.041 3.2 18.265 16 5.041 28.8"/></symbol><symbol id="icon-arrow-z" viewBox="0 0 22 32"><path fill="none" stroke="#fff" style="stroke:var(--color1,#fff)" stroke-linejoin="round" stroke-linecap="round" stroke-width="6.4" d="M5.041 3.2 18.265 16 5.041 28.8"/></symbol></defs></svg>